<?xml version="1.0" encoding="UTF-8"?>
<svg width="221px" height="255px" viewBox="0 0 221 255" version="1.1" xmlns="http://www.w3.org/2000/svg" xmlns:xlink="http://www.w3.org/1999/xlink">
    <!-- Generator: Sketch 61.2 (89653) - https://sketch.com -->
    <title>Снимок экрана 2021-07-13 в 8.07.19</title>
    <desc>Created with Sketch.</desc>
    <defs>
        <polygon id="path-1" points="127.5 0 237.918239 63.75 237.918239 191.25 127.5 255 17.081761 191.25 17.081761 63.75"></polygon>
    </defs>
    <g id="Page-1" stroke="none" stroke-width="1" fill="none" fill-rule="evenodd">
        <g id="Extra-large:-Desktops---12-col" transform="translate(-610.000000, -462.000000)">
            <g id="Снимок-экрана-2021-07-13-в-8.07.19" transform="translate(593.000000, 462.000000)">
                <mask id="mask-2" fill="white">
                    <use xlink:href="#path-1"></use>
                </mask>
                <use id="Mask" fill="#FFFFFF" xlink:href="#path-1"></use>
                <path d="M127,24 L217,75.9615242 L217,179.884573 L127,231.846097 L37,179.884573 L37,75.9615242 L127,24 Z M127,33.5997184 L45.3137126,80.7613834 L45.3137126,175.084436 L127,222.246101 L208.68601,175.084436 L208.68601,80.7613834 L127,33.5997184 Z M115.914875,58.6410162 L115.914875,69.7261413 L71.5743742,91.8963917 L71.5743742,119.609205 L115.914875,119.609205 L115.914875,130.69433 L71.5743742,130.69433 L71.5743742,158.427371 L115.914875,186.119956 L115.914875,197.205081 L60.489249,163.949705 L60.489249,86.3538291 L115.914875,58.6410162 Z M132.542563,58.6410162 L143.627688,64.1835787 L143.627688,161.178424 L162.820601,172.263549 L182.425626,161.178424 L182.425626,80.8112665 L193.510751,86.3538291 L193.510751,169.492268 L162.820601,186.119956 L132.542563,169.492268 L132.542563,58.6410162 Z" id="Combined-Shape" fill="#6C4843" mask="url(#mask-2)"></path>
            </g>
        </g>
    </g>
</svg>