<?xml version="1.0" encoding="UTF-8"?>
<svg width="117px" height="30px" viewBox="0 0 117 30" version="1.1" xmlns="http://www.w3.org/2000/svg" xmlns:xlink="http://www.w3.org/1999/xlink">
    <!-- Generator: Sketch 61.2 (89653) - https://sketch.com -->
    <title>ИНКОНСАЛТГРУППАКОМПАНИЙ</title>
    <desc>Created with Sketch.</desc>
    <g id="Page-1" stroke="none" stroke-width="1" fill="none" fill-rule="evenodd">
        <g id="Extra-large:-Desktops---12-col" transform="translate(-165.000000, -21.000000)" fill="#FDECEE" fill-rule="nonzero">
            <path d="M168.394176,35 L174.568892,26.0830966 L174.677557,26.0830966 L174.677557,35 L177.049006,35 L177.049006,21.9090909 L174.920455,21.9090909 L168.764915,30.8323864 L168.643466,30.8323864 L168.643466,21.9090909 L166.291193,21.9090909 L166.291193,35 L168.394176,35 Z M181.996449,35 L181.996449,29.4389205 L188.0625,29.4389205 L188.0625,35 L190.440341,35 L190.440341,21.9090909 L188.0625,21.9090909 L188.0625,27.4509943 L181.996449,27.4509943 L181.996449,21.9090909 L179.625,21.9090909 L179.625,35 L181.996449,35 Z M195.387784,35 L195.387784,29.2791193 L196.487216,29.2791193 L200.821023,35 L203.754972,35 L198.417614,27.9879261 L203.997869,21.9090909 L200.993608,21.9090909 L196.046165,27.2911932 L195.387784,27.2911932 L195.387784,21.9090909 L193.016335,21.9090909 L193.016335,35 L195.387784,35 Z M210.696733,35.1789773 C211.84304,35.1789773 212.868963,34.912642 213.774503,34.3799716 C214.680043,33.8473011 215.395952,33.0791903 215.92223,32.0756392 C216.448509,31.0720881 216.711648,29.8650568 216.711648,28.4545455 C216.711648,27.0440341 216.448509,25.8370028 215.92223,24.8334517 C215.395952,23.8299006 214.680043,23.0617898 213.774503,22.5291193 C212.868963,21.9964489 211.84304,21.7301136 210.696733,21.7301136 C209.550426,21.7301136 208.524503,21.9964489 207.618963,22.5291193 C206.713423,23.0617898 205.997514,23.8299006 205.471236,24.8334517 C204.944957,25.8370028 204.681818,27.0440341 204.681818,28.4545455 C204.681818,29.8607955 204.944957,31.065696 205.471236,32.0692472 C205.997514,33.0727983 206.713423,33.8419744 207.618963,34.3767756 C208.524503,34.9115767 209.550426,35.1789773 210.696733,35.1789773 Z M210.696733,33.0504261 C209.985085,33.0504261 209.356534,32.8746449 208.81108,32.5230824 C208.265625,32.1715199 207.838423,31.6537642 207.529474,30.9698153 C207.220526,30.2858665 207.066051,29.4474432 207.066051,28.4545455 C207.066051,27.4616477 207.220526,26.6232244 207.529474,25.9392756 C207.838423,25.2553267 208.265625,24.737571 208.81108,24.3860085 C209.356534,24.034446 209.985085,23.8586648 210.696733,23.8586648 C211.408381,23.8586648 212.036932,24.034446 212.582386,24.3860085 C213.127841,24.737571 213.555043,25.2553267 213.863991,25.9392756 C214.17294,26.6232244 214.327415,27.4616477 214.327415,28.4545455 C214.327415,29.4474432 214.17294,30.2858665 213.863991,30.9698153 C213.555043,31.6537642 213.127841,32.1715199 212.582386,32.5230824 C212.036932,32.8746449 211.408381,33.0504261 210.696733,33.0504261 Z M221.333097,35 L221.333097,29.4389205 L227.399148,29.4389205 L227.399148,35 L229.776989,35 L229.776989,21.9090909 L227.399148,21.9090909 L227.399148,27.4509943 L221.333097,27.4509943 L221.333097,21.9090909 L218.961648,21.9090909 L218.961648,35 L221.333097,35 Z M238.016335,35.1789773 C238.796165,35.1789773 239.505682,35.0628551 240.144886,34.8306108 C240.784091,34.5983665 241.34233,34.2745028 241.819602,33.8590199 C242.296875,33.4435369 242.683594,32.9630682 242.979759,32.4176136 C243.275923,31.8721591 243.46875,31.2883523 243.558239,30.6661932 L243.558239,30.6661932 L241.167614,30.6534091 C241.09517,31.0369318 240.964134,31.3778409 240.774503,31.6761364 C240.584872,31.9744318 240.352628,32.2258523 240.07777,32.4303977 C239.802912,32.6349432 239.493963,32.7894176 239.150923,32.893821 C238.807884,32.9982244 238.440341,33.0504261 238.048295,33.0504261 C237.340909,33.0504261 236.713423,32.8767756 236.165838,32.5294744 C235.618253,32.1821733 235.187855,31.6665483 234.874645,30.9825994 C234.561435,30.2986506 234.40483,29.4559659 234.40483,28.4545455 C234.40483,27.4701705 234.560369,26.6360085 234.871449,25.9520597 C235.182528,25.2681108 235.612926,24.7482244 236.162642,24.3924006 C236.712358,24.0365767 237.34304,23.8586648 238.054688,23.8586648 C238.455256,23.8586648 238.82919,23.9129972 239.176491,24.0216619 C239.523793,24.1303267 239.833807,24.2911932 240.106534,24.5042614 C240.379261,24.7173295 240.607244,24.9762074 240.790483,25.2808949 C240.973722,25.5855824 241.099432,25.9339489 241.167614,26.3259943 L241.167614,26.3259943 L243.558239,26.3259943 C243.460227,25.5973011 243.252486,24.9485085 242.935014,24.3796165 C242.617543,23.8107244 242.213778,23.3291903 241.723722,22.9350142 C241.233665,22.5408381 240.675426,22.2414773 240.049006,22.0369318 C239.422585,21.8323864 238.745028,21.7301136 238.016335,21.7301136 C236.87429,21.7301136 235.851562,21.9964489 234.948153,22.5291193 C234.044744,23.0617898 233.330966,23.8299006 232.806818,24.8334517 C232.28267,25.8370028 232.020597,27.0440341 232.020597,28.4545455 C232.020597,29.8607955 232.28054,31.0667614 232.800426,32.0724432 C233.320312,33.078125 234.03196,33.8473011 234.935369,34.3799716 C235.838778,34.912642 236.865767,35.1789773 238.016335,35.1789773 Z M247.252841,35 L248.334,31.773 L253.257,31.773 L254.341619,35 L256.872869,35 L252.257812,21.9090909 L249.330256,21.9090909 L244.721591,35 L247.252841,35 Z M252.617,29.868 L248.973,29.868 L250.742898,24.59375 L250.84517,24.59375 L252.617,29.868 Z M258.387784,35 C259.40625,35 260.20206,34.7677557 260.775213,34.303267 C261.348366,33.8387784 261.761719,33.1356534 262.01527,32.193892 C262.268821,31.2521307 262.425426,30.0653409 262.485085,28.6335227 L262.485085,28.6335227 L262.689631,23.8586648 L266.735795,23.8586648 L266.735795,35 L269.056108,35 L269.056108,21.9090909 L260.477983,21.9090909 L260.260653,27.8984375 C260.213778,29.1384943 260.118963,30.1271307 259.976207,30.8643466 C259.833452,31.6015625 259.613991,32.1363636 259.317827,32.46875 C259.021662,32.8011364 258.622159,32.9822443 258.119318,33.0120739 L258.119318,33.0120739 L257.74858,33.03125 L257.74858,35 L258.387784,35 Z M277.461648,35 L277.461648,23.897017 L281.507812,23.897017 L281.507812,21.9090909 L271.06321,21.9090909 L271.06321,23.897017 L275.109375,23.897017 L275.109375,35 L277.461648,35 Z M167.238281,50 L167.238281,43.2148438 L170.933594,43.2148438 L170.933594,42 L165.789062,42 L165.789062,50 L167.238281,50 Z M173.609375,50 L173.609,47.297 L175.140625,47.296875 C175.669643,47.296875 176.126913,47.2131696 176.512436,47.0457589 L176.699219,46.9550781 C177.121094,46.7272135 177.440104,46.4140625 177.65625,46.015625 C177.872396,45.6171875 177.980469,45.1614583 177.980469,44.6484375 C177.980469,44.140625 177.873047,43.686849 177.658203,43.2871094 C177.443359,42.8873698 177.126953,42.5729167 176.708984,42.34375 C176.291016,42.1145833 175.77474,42 175.160156,42 L175.160156,42 L172.160156,42 L172.160156,50 L173.609375,50 Z M173.609375,43.2109375 L174.9375,43.2109375 C175.299479,43.2109375 175.595703,43.2714844 175.826172,43.3925781 C176.056641,43.5136719 176.227214,43.6822917 176.337891,43.8984375 C176.448568,44.1145833 176.503906,44.3645833 176.503906,44.6484375 C176.503906,44.9322917 176.448568,45.1835938 176.337891,45.4023438 C176.227214,45.6210938 176.057292,45.7929688 175.828125,45.9179688 C175.598958,46.0429688 175.304688,46.1054688 174.945312,46.1054688 L174.945312,46.1054688 L173.609,46.106 L173.609375,43.2109375 Z M180.523438,50.109375 C180.950521,50.109375 181.297526,50.0358073 181.564453,49.8886719 C181.83138,49.7415365 182.048177,49.547526 182.214844,49.3066406 C182.38151,49.0657552 182.528646,48.8046875 182.65625,48.5234375 L182.65625,48.5234375 L185.414062,42 L183.921875,42 L182.199219,46.28125 L180.207031,42 L178.691406,42 L181.550781,47.8828125 L181.445312,48.1523438 C181.390625,48.3007812 181.322266,48.4309896 181.240234,48.5429688 C181.158203,48.6549479 181.050781,48.7408854 180.917969,48.8007812 C180.785156,48.8606771 180.615885,48.890625 180.410156,48.890625 L180.410156,48.890625 L179.953125,48.890625 L179.953125,50.109375 L180.523438,50.109375 Z M188.039062,50 L188.039062,43.203125 L191.539062,43.203125 L191.539062,50 L192.976562,50 L192.976562,42 L186.601562,42 L186.601562,50 L188.039062,50 Z M196.296875,50 L196.296875,43.203125 L199.796875,43.203125 L199.796875,50 L201.234375,50 L201.234375,42 L194.859375,42 L194.859375,50 L196.296875,50 Z M203.992188,50 L204.653,48.028 L207.661,48.028 L208.324219,50 L209.871094,50 L207.050781,42 L205.261719,42 L202.445312,50 L203.992188,50 Z M207.27,46.864 L205.044,46.864 L206.125,43.640625 L206.1875,43.640625 L207.27,46.864 Z M215.105469,50 L215.105469,46.5039062 L215.777344,46.5039062 L218.425781,50 L220.21875,50 L216.957031,45.7148438 L220.367188,42 L218.53125,42 L215.507812,45.2890625 L215.105469,45.2890625 L215.105469,42 L213.65625,42 L213.65625,50 L215.105469,50 Z M224.460938,50.109375 C225.161458,50.109375 225.788411,49.9466146 226.341797,49.6210938 C226.895182,49.2955729 227.332682,48.8261719 227.654297,48.2128906 C227.975911,47.5996094 228.136719,46.8619792 228.136719,46 C228.136719,45.1380208 227.975911,44.4003906 227.654297,43.7871094 C227.332682,43.1738281 226.895182,42.7044271 226.341797,42.3789062 C225.788411,42.0533854 225.161458,41.890625 224.460938,41.890625 C223.760417,41.890625 223.133464,42.0533854 222.580078,42.3789062 C222.026693,42.7044271 221.589193,43.1738281 221.267578,43.7871094 C220.945964,44.4003906 220.785156,45.1380208 220.785156,46 C220.785156,46.859375 220.945964,47.5957031 221.267578,48.2089844 C221.589193,48.8222656 222.026693,49.2923177 222.580078,49.6191406 C223.133464,49.9459635 223.760417,50.109375 224.460938,50.109375 Z M224.460938,48.8085938 C224.026042,48.8085938 223.641927,48.7011719 223.308594,48.4863281 C222.97526,48.2714844 222.714193,47.9550781 222.525391,47.5371094 C222.336589,47.1191406 222.242188,46.6067708 222.242188,46 C222.242188,45.3932292 222.336589,44.8808594 222.525391,44.4628906 C222.714193,44.0449219 222.97526,43.7285156 223.308594,43.5136719 C223.641927,43.2988281 224.026042,43.1914062 224.460938,43.1914062 C224.895833,43.1914062 225.279948,43.2988281 225.613281,43.5136719 C225.946615,43.7285156 226.207682,44.0449219 226.396484,44.4628906 C226.585286,44.8808594 226.679688,45.3932292 226.679688,46 C226.679688,46.6067708 226.585286,47.1191406 226.396484,47.5371094 C226.207682,47.9550781 225.946615,48.2714844 225.613281,48.4863281 C225.279948,48.7011719 224.895833,48.8085938 224.460938,48.8085938 Z M230.902344,50 L230.902344,44.4921875 L230.976562,44.4921875 L233.1875,49.9765625 L234.226562,49.9765625 L236.4375,44.5039062 L236.511719,44.5039062 L236.511719,50 L237.902344,50 L237.902344,42 L236.128906,42 L233.753906,47.796875 L233.660156,47.796875 L231.285156,42 L229.511719,42 L229.511719,50 L230.902344,50 Z M241.070312,50 L241.070312,43.203125 L244.570312,43.203125 L244.570312,50 L246.007812,50 L246.007812,42 L239.632812,42 L239.632812,50 L241.070312,50 Z M248.765625,50 L249.426,48.028 L252.434,48.028 L253.097656,50 L254.644531,50 L251.824219,42 L250.035156,42 L247.21875,50 L248.765625,50 Z M252.043,46.864 L249.817,46.864 L250.898438,43.640625 L250.960938,43.640625 L252.043,46.864 Z M257.148438,50 L257.148438,46.6015625 L260.855469,46.6015625 L260.855469,50 L262.308594,50 L262.308594,42 L260.855469,42 L260.855469,45.3867188 L257.148438,45.3867188 L257.148438,42 L255.699219,42 L255.699219,50 L257.148438,50 Z M265.167969,50 L268.941406,44.5507812 L269.007812,44.5507812 L269.007812,50 L270.457031,50 L270.457031,42 L269.15625,42 L265.394531,47.453125 L265.320312,47.453125 L265.320312,42 L263.882812,42 L263.882812,50 L265.167969,50 Z M275.3125,41.46875 C275.875,41.46875 276.320964,41.327474 276.650391,41.0449219 C276.979818,40.7623698 277.144531,40.3932292 277.144531,39.9375 L277.144531,39.9375 L276.085938,39.9375 C276.083333,40.1276042 276.022786,40.2955729 275.904297,40.4414062 C275.785807,40.5872396 275.588542,40.6601562 275.3125,40.6601562 C275.03125,40.6601562 274.832682,40.5865885 274.716797,40.4394531 C274.600911,40.2923177 274.542969,40.125 274.542969,39.9375 L274.542969,39.9375 L273.492157,39.9375 C273.489583,40.3932292 273.652995,40.7623698 273.982422,41.0449219 C274.311849,41.327474 274.755208,41.46875 275.3125,41.46875 Z M273.316406,50 L277.089844,44.5507812 L277.15625,44.5507812 L277.15625,50 L278.605469,50 L278.605469,42 L277.304688,42 L273.542969,47.453125 L273.46875,47.453125 L273.46875,42 L272.03125,42 L272.03125,50 L273.316406,50 Z" id="ИНКОНСАЛТГРУППАКОМПАНИЙ"></path>
        </g>
    </g>
</svg>